<?xml version="1.0" encoding="utf-8"?>
<!-- Generator: Adobe Illustrator 24.2.0, SVG Export Plug-In . SVG Version: 6.00 Build 0)  -->
<svg version="1.1" id="ad1db818-b740-459f-8c8c-b7c337b4c82d"
	 xmlns="http://www.w3.org/2000/svg" xmlns:xlink="http://www.w3.org/1999/xlink" x="0px" y="0px" viewBox="0 0 1082 530.8"
	 style="enable-background:new 0 0 1082 530.8;" xml:space="preserve">
<style type="text/css">
	.st0{fill:#E6E6E6;}
	.st1{fill:#3F3D56;}
	.st2{fill:#7700C9;}
	.st3{fill:#A0616A;}
	.st4{fill:#3F95FF;}
	.st5{fill:#2F2E41;}
	.st6{fill:#FFFFFF;}
	.st7{opacity:0.2;enable-background:new    ;}
	.st8{fill:#0ABAB5;}
	.st9{fill:#FFB9B9;}
	.st10{fill:#FF5096;}
	.st11{fill:#FBC02D;}
	.st12{fill:#565656;}
</style>
<path class="st0" d="M1081.9,525.7c7.5,6.8-305.3,6.8-297.7,0C776.6,518.9,1089.4,518.9,1081.9,525.7z"/>
<path class="st0" d="M576.7,464.3c14.5,16.8-591.1,16.8-576.5,0C-14.3,447.5,591.3,447.5,576.7,464.3z"/>
<path id="e84b1720-bcff-4cbb-a054-3015ec64150f" class="st1" d="M889.5,454.9c-2.3,0-2.4,7.2,0,7.2h87c1,0,1.9-1.6,1.9-3.6
	c0-2-0.8-3.7-1.9-3.7H889.5z"/>
<path id="e860648b-2b37-4627-9c5b-8f6e964a3c31" class="st2" d="M916.9,427.9c-3,0-3,7.2,0,7.2h32c1.3,0,2.4-1.6,2.4-3.6
	c0-2-1.1-3.7-2.4-3.7H916.9z"/>
<path id="a755faaa-e7b4-4234-ae1c-f54238f9c9ba" class="st1" d="M889.5,482.9c-2.3,0-2.4,7.2,0,7.2h87c1,0,1.9-1.6,1.9-3.6
	c0-2-0.8-3.7-1.9-3.7H889.5z"/>
<path class="st1" d="M995,392H871c-2.8,0-5,2.2-5,5v124c0,2.8,2.2,5,5,5h124c2.8,0,5-2.2,5-5V397C1000,394.2,997.8,392,995,392z
	 M998,521c0,1.7-1.3,3-3,3H871c-1.7,0-3-1.3-3-3V397c0-1.7,1.3-3,3-3h124c1.7,0,3,1.3,3,3V521z"/>
<path class="st3" d="M823.8,293.6l10.1-5l-8.4-22.6l-2.2-11.4c-0.9-4.7-5.4-7.7-10.1-6.8c-1.5,0.3-2.8,0.9-4,1.9l0,0
	c-3.5,3-4,8.3-1.1,11.9l8.2,10.3L823.8,293.6z"/>
<path class="st0" d="M820.4,291.1l1.9,5.8l8.3,26.1c2.3,7.3,10.2,11.4,17.5,9.1c3.2-1,6-3.2,7.7-6.1l27-46.3
	c0.4-0.7,0.8-1.5,1.1-2.3c2.8-7.4-0.9-15.6-8.2-18.4c-6.9-2.6-14.6,0.4-17.9,7l-16.5,35.1l-7.5-16.8L820.4,291.1z"/>
<path class="st4" d="M824.3,459.6l18.4,1.7l10.1-72.9c33.2,5.6,64.4,7.4,91.5,0.6c9.2-2.3,14.8-11.5,12.5-20.7
	c-0.1-0.4-0.2-0.9-0.4-1.3c-3.2-9.7-8.9-20-15.6-30.7l-44.4,15.9l-1.7,6.7l-47.4-6c-9.5-1.2-18.2,5.5-19.4,15.1
	c-0.1,0.5-0.1,1-0.1,1.5L824.3,459.6z"/>
<path class="st5" d="M804.2,473.7L804.2,473.7c-0.4-2.5,0.8-5.1,3-6.5l18.9-9.3l14.3,1.8l3.4,12.1c0.6,3.5-1.8,6.8-5.3,7.4
	c-0.1,0-0.2,0-0.3,0l-26.6,0.1C807.9,479.7,804.7,477.2,804.2,473.7z"/>
<path class="st4" d="M819.6,450.2l18.4,1.7l10.1-72.9c33.2,5.6,64.4,7.4,91.5,0.6c9.2-2.3,14.8-11.5,12.5-20.7
	c-0.1-0.4-0.2-0.9-0.4-1.3c-3.2-9.7-8.9-20-15.6-30.7l-44.4,15.9l-1.7,6.7l-47.4-6c-9.5-1.2-18.2,5.5-19.4,15.1
	c-0.1,0.5-0.1,1-0.1,1.5L819.6,450.2z"/>
<path class="st5" d="M799.5,464.4L799.5,464.4c-0.4-2.5,0.8-5.1,3-6.5l18.9-9.3l14.3,1.8l3.4,12.1c0.6,3.5-1.8,6.8-5.3,7.4
	c-0.1,0-0.2,0-0.3,0l-26.6,0.1C803.3,470.4,800,467.9,799.5,464.4z"/>
<circle class="st3" cx="853.2" cy="228.1" r="22.6"/>
<polygon class="st3" points="854,274.2 880,270.8 869.9,239.8 844.8,239.8 "/>
<path class="st0" d="M846.9,305.5c1.3,3.7,3.2,7.1,5.7,10.1c3.5,4.2,7.6,7.9,12.3,10.7c0.8,0.5,1.7,1,2.5,1.5l5,4.3l17.6,15
	l48.6-18.4c-10.7-23.8-24.1-42.7-39.4-57.8c-6.5-9.6-18.3-14.1-29.6-11.3l-18.2,4.5C845,279.4,842.6,293.5,846.9,305.5z"/>
<path class="st1" d="M807.3,240.3c-0.6-0.6-1.5-0.7-2.2-0.2c-0.4,0.5-15,9.1-14.1,10c-0.1,0.5,0.1,1,0.5,1.4l33.8,33.7
	c0.3,0.3,0.8,0.5,1.3,0.5c0.7,0.9,11.8-11.8,12.3-12c0.7-0.7,0.7-1.8,0-2.5L807.3,240.3z"/>
<path class="st6" d="M794.4,249.6l1.4-0.9c-0.3,0.6-0.1,1.4,0.5,1.8c0.4,0.2,0.9,0.2,1.3-0.1l8.9-6.1c0.6-0.4,0.7-1.2,0.3-1.8
	c-0.2-0.2-0.4-0.4-0.7-0.5c0.4-0.1,0.9-0.8,1.3-0.4l30,29.5c1.1,0.5-10.9,10.9-10.9,11.3c-0.9,1-31.6-32-32.3-32
	C794.2,250.2,794.2,249.9,794.4,249.6C794.4,249.7,794.4,249.7,794.4,249.6z"/>
<polygon class="st2" points="829.1,264.6 819.9,273.3 798,251.7 809.1,244.4 "/>
<path class="st0" d="M798.8,257c0.5-0.4-1.8-2.1-1.9-2.4c-0.1-0.1-0.3-0.1-0.5,0c-0.5,0.4,1.8,2.1,1.9,2.4
	C798.5,257.1,798.7,257.1,798.8,257z"/>
<path class="st0" d="M802.1,259.8c-0.3-0.1-2-2.4-2.4-1.9c-0.5,0.4,1.8,2.1,1.9,2.4C801.9,260.5,802.3,260,802.1,259.8z"/>
<path class="st2" d="M826.7,272c0,2.8,4.3,2.8,4.3,0C831,269.3,826.6,269.3,826.7,272z"/>
<path class="st7" d="M852.6,315.6c3.5,4.2,7.6,7.9,12.3,10.7c0.8,0.5,1.7,1,2.5,1.5l5,4.3c9.9-13,9.4-52.6,9.4-52.6l-15.1,1.5
	L852.6,315.6z"/>
<path class="st3" d="M823,305.2l10.1-5l-8.4-22.6l-2.2-11.4c-0.9-4.7-5.4-7.7-10.1-6.8c-1.5,0.3-2.8,0.9-4,1.9l0,0
	c-3.5,3-4,8.3-1.1,11.9l8.2,10.3L823,305.2z"/>
<path class="st0" d="M833,296l-13.4,6.7l10.2,31.9c1.5,4.7,5.3,8.2,10.1,9.3l0,0c5.9,1.4,12.1-1.2,15.2-6.4l27-46.3
	c4-6.6,1.9-15.2-4.6-19.4l0,0c-6.6-4.2-15.4-2.2-19.7,4.4c-0.3,0.4-0.5,0.9-0.7,1.3l-16.5,35.1L833,296z"/>
<path class="st5" d="M844.6,219.3c-1.8,1.5-3.9,2.8-6.2,3.6c-2.3,0.9-4.8,0.7-6.9-0.5c-2.3-1.7-3.6-4.5-3.2-7.4
	c0.4-2.8,1.5-5.5,3.3-7.7c10.6-14.8,31.3-18.2,46.1-7.5c2.8,2,5.3,4.5,7.3,7.2c2.2,2.8,3.6,6.2,4,9.8c0.3,6.3-4,12.2-3.5,18.4
	c0.4,5.3,4.2,9.9,8.7,12.7s9.7,4.3,14.8,6s10.2,3.8,13.9,7.6s5.8,9.7,3.7,14.6c-1.7,4-5.7,6.6-9.7,8.3c-10.8,4.6-22.9,5.1-33.9,1.3
	c-4.1-1.4-8.5-4.3-8.6-8.6c0-1.9,0.8-3.6,1.3-5.4s0.6-4-0.7-5.3c-1.6-1.7-4.5-1.3-6.4,0c-1.9,1.4-3.1,3.4-4.7,5.2
	c-3,3.3-7.4,5.4-11.8,4.8c-4.4-0.6-8.3-4.3-8.5-8.8c-0.3-7.6,9.2-12.3,10.2-19.9c0.7-5-2.6-9.6-5.4-13.8s-5.5-9.5-3.5-14.1"/>
<path class="st1" d="M529.2,461.1H155.8c-3.8,0-6.9-3.4-6.9-7.6V102.7c0-4.2,3.1-7.6,6.9-7.6h373.5c3.8,0,6.9,3.4,6.9,7.6v350.8
	C536.1,457.7,533.1,461.1,529.2,461.1z M155.8,98.1c-2.3,0-4.1,2-4.1,4.6v350.8c0,2.5,1.9,4.6,4.1,4.6h373.5c2.3,0,4.1-2,4.1-4.6
	V102.7c0-2.5-1.9-4.6-4.1-4.6H155.8z"/>
<circle class="st0" cx="213.8" cy="404.3" r="28.2"/>
<path class="st0" d="M278.9,385.5c-2.6,0-4.7,2.1-4.7,4.7c0,2.6,2.1,4.7,4.7,4.7h221.4c2.6,0,4.7-2.1,4.7-4.7s-2.1-4.7-4.7-4.7
	H278.9z"/>
<path class="st0" d="M278.9,413.7c-2.6,0-4.7,2.1-4.7,4.7s2.1,4.7,4.7,4.7h95.2c2.6,0,4.7-2.1,4.7-4.7c0-2.6-2.1-4.7-4.7-4.7
	c0,0,0,0,0,0H278.9z"/>
<path class="st8" d="M618,349.7H244.5c-3.8,0-6.9-3.1-6.9-6.9V178.9c0-3.8,3.1-6.9,6.9-6.9H618c3.8,0,6.9,3.1,6.9,6.9v163.9
	C624.9,346.6,621.8,349.7,618,349.7z"/>
<path class="st6" d="M320.6,229.1c-2.6,0-4.7,2.1-4.7,4.7c0,2.6,2.1,4.7,4.7,4.7h221.4c2.6,0,4.7-2.1,4.7-4.7c0-2.6-2.1-4.7-4.7-4.7
	H320.6z"/>
<path class="st6" d="M320.6,256.3c-2.6,0-4.7,2.1-4.7,4.7c0,2.6,2.1,4.7,4.7,4.7h221.4c2.6,0,4.7-2.1,4.7-4.7c0-2.6-2.1-4.7-4.7-4.7
	H320.6z"/>
<path class="st6" d="M320.6,283.2c-2.6,0-4.7,2.1-4.7,4.7c0,2.6,2.1,4.7,4.7,4.7h95.2c2.6,0,4.7-2.1,4.7-4.7s-2.1-4.7-4.7-4.7
	c0,0,0,0,0,0H320.6z"/>
<polygon points="572.2,49.7 526.4,60.1 507,23.6 546.2,8.4 "/>
<path class="st5" d="M610.2,308.7l17.2-15.6l-37-83.5L558,169.9l52.8,22.9l5.5,58.2l26.3,9l-3.4-72.7c-0.4-9.3-6.2-17.4-14.8-20.9
	L581,149l-7.8-32.6l-45.2-0.6c-14.1,24.5-20.3,46-10.2,61.3l47.1,45.9L610.2,308.7z"/>
<path class="st5" d="M618.2,298.1c0,0,2.4-7.3,6.3-5.6c3.8,1.7,14.5,10.2,14.5,10.2s17.9,2.5,6.7,9s-15.6,6.1-15.9,5.2s-3.3-3-3.3-3
	l-4.2,2.7l-7.1,0.7c0,0-9.3-15.8-6.3-16.2S618.4,301.2,618.2,298.1z"/>
<path class="st5" d="M629.5,253.4c0,0,7.4-1.9,8.1,2.2c0.7,4.1-0.6,17.7-0.6,17.7s7.6,16.4-3.9,10.5c-11.5-5.9-13.6-9.7-13-10.5
	s0.7-4.3,0.7-4.3l-4.6-2.1l-4.5-5.6c0,0,8.2-16.5,10.2-14.2S627,255.2,629.5,253.4z"/>
<circle class="st9" cx="533.5" cy="29.7" r="16.6"/>
<path class="st9" d="M531.6,84.3l40.3-5.8c-6-10.9-12.2-20.8-20.5-19.7c-7.4-5.2-7.8-13.5-6-22.9l-20.1,5.4
	c1.8,5.8,1.1,10.8-3.6,14.8C528.1,65.4,532.4,74.7,531.6,84.3z"/>
<path class="st10" d="M528.5,119.6c14.3,18.6,29,26,44.7-0.6l1.3-11.9c10.1-12.8,7.2-23.8-5.2-33.6l-6-14l-9-1.4l0,0
	c3.3,3.8,2.9,9.6-0.9,12.9c-1.8,1.6-4.2,2.4-6.6,2.2l-3.2-0.2c-2.4-0.2-4.7-1.3-6.3-3.1l-13.8-16l-5.8,1.6c-1.3,0.4-2.3,1.5-2.4,2.9
	l-1.9,26.7C521.8,94.1,526.6,105.8,528.5,119.6z"/>
<path class="st9" d="M522.1,108.3l-31.7-6.4l21-19.6l-8-14.5l-34,36.2c-1.8,2-1.6,5.1,0.4,6.8c0.7,0.7,1.7,1.1,2.7,1.2l46.1,5.1
	l1.9,8.3c0.9,3.8,4.7,6.2,8.5,5.3c0.8-0.2,1.6-0.5,2.3-0.9l0,0c3.3-2.1,4.3-6.5,2.1-9.8c-0.3-0.4-0.6-0.8-0.9-1.1L522.1,108.3z"/>
<path class="st9" d="M571.4,159.7l-4.2,10.9c-1.6,4.2,0.5,8.9,4.7,10.5c0.3,0.1,0.6,0.2,0.9,0.3l0,0c4.3,1.1,8.7-1.5,9.8-5.9
	c0.3-1.1,0.3-2.2,0.1-3.3l-1.8-10.8l5.8-43.3l-5.2-28.6l-11.9,3.7l4,26.6L571.4,159.7z"/>
<path class="st10" d="M566.9,96.2l18-7l-10-22c-2.2-4.8-6.8-8-12.1-8.3l-4.6-0.3L566.9,96.2z"/>
<path class="st10" d="M507.5,87.3l19.2-6.5l-6.8-23.1c-0.5-1.5-2-2.5-3.6-2.3l0,0c-0.7,0.1-1.3,0.4-1.8,0.8L495,73.6
	C498.8,79.8,502.8,79.9,507.5,87.3z"/>
<path d="M544.5,2.7c0,0,10.1,1.9,12.5,14.6c0.4,2.1,0.4,4.3,0.2,6.5c-0.2,2.4,0.1,7.6,5.4,13.6c3.4,3.9,6.7,8.1,9.6,12.4l0,0
	l-10.6,2.8L556.9,35c-2.3-8.5-5.8-16.6-10.5-24.1l-0.1-0.2c0,0-3.5,9.4-13,10.7l2.9-3.8c0,0-11,6.4-17.3,8.3c-2.2,0.7-3.4,3-2.7,5.1
	c0.2,0.8,0.7,1.5,1.4,2c0,0,0.1,0.1,0.1,0.1c4.6,3.5,14,11.8,10.3,19.9s0.6,9.5,0.6,9.5l-8-3L517,58l0.4,2.7L499.6,61
	c0,0-4.8,0,3.7-12.9c0,0,2.1-4.8,0.4-8.5c-1.4-2.8-2-5.9-2-8.9C502.3,17.8,507.7-8.5,544.5,2.7z"/>
<path class="st11" d="M266.3,137c0.7,0.4,1.5,0.4,2.2,0l11.2-6.8c1-0.6,1.4-1.9,0.7-3c-0.6-1-1.9-1.4-3-0.7l-11.2,6.8
	c-1,0.6-1.4,1.9-0.7,3C265.7,136.6,266,136.8,266.3,137z"/>
<path class="st11" d="M241.4,106.1c-1.2,0-2.2,0.9-2.2,2.1l-0.3,18.3c0,0.7,0.3,1.4,0.9,1.8c0.3,0.3,0.8,0.4,1.2,0.4
	c1.2,0,2.2-0.9,2.2-2.1l0.3-18.3C243.5,107.1,242.5,106.1,241.4,106.1"/>
<path class="st11" d="M213.5,137.2c1,0.6,2.3,0.3,2.9-0.7c0.6-1,0.3-2.3-0.7-3l-13.1-8.3c-1-0.7-2.3-0.3-3,0.7c-0.6,1-0.3,2.3,0.7,3
	L213.5,137.2C213.5,137.2,213.5,137.2,213.5,137.2z"/>
<path class="st11" d="M180.5,160.3c0.4,0.2,0.8,0.3,1.2,0.3l18.4-0.9c1.2-0.1,2.1-1.1,2.1-2.3c-0.1-1.2-1.1-2.1-2.3-2.1l-18.4,0.9
	c-1.2,0.1-2.1,1.1-2.1,2.3C179.4,159.3,179.9,160,180.5,160.3z"/>
<path class="st11" d="M281.4,158.7c0.3,0.2,0.7,0.3,1.2,0.3l23.3-0.8c1.2,0,2.1-1,2.1-2.2c0-1.2-1-2.1-2.2-2.1l-23.3,0.8
	c-1.2,0-2.1,1-2.1,2.2C280.3,157.7,280.8,158.3,281.4,158.7z"/>
<path class="st11" d="M209.2,169.1c0.1-18,15-32.5,33-32.1c17.7,0.4,31.6,14.8,31.5,32.5c-0.1,10.5-5.1,19.8-13,25.7
	c-4.1,3.1-6.5,7.9-6.6,13.1l0,5.6l-26-0.2l0-5.6c0-5.1-2.3-10-6.4-13.1C214.1,189,209.1,179.6,209.2,169.1z"/>
<g>
	<polygon class="st6" points="243.3,215.2 245.6,215.3 245.8,191.6 249.4,182.6 247.2,181.8 243.4,191.1 243.4,191.4 	"/>
	<polygon class="st6" points="236.7,215.2 239.1,215.2 239.2,191.1 235.5,181.7 233.3,182.6 236.8,191.5 	"/>
</g>
<path class="st12" d="M241.1,230.2c7.2,0,13-5.7,13.1-12.9l0-3.4l-26-0.2l0,3.4C228.1,224.3,233.9,230.1,241.1,230.2"/>
<polygon class="st6" points="232.7,180.8 235,177.6 238,180.5 241.5,177.5 244.6,181.1 247.7,176.7 251.3,180.6 253.1,179 
	247.4,173 244.4,177.2 241.7,174.1 238.1,177.3 234.8,173.9 230.8,179.4 "/>
</svg>
